<?xml version="1.0" encoding="UTF-8"?>
<svg width="64" height="64" viewBox="0 0 64 64" fill="none" xmlns="http://www.w3.org/2000/svg">
  <circle cx="32" cy="32" r="32" fill="#81D7B4" fill-opacity="0.1"/>
  <path d="M32 16C26.4772 16 22 20.4772 22 26C22 31.5228 26.4772 36 32 36C37.5228 36 42 31.5228 42 26C42 20.4772 37.5228 16 32 16Z" fill="#81D7B4"/>
  <path d="M48 48C48 39.1634 40.8366 32 32 32C23.1634 32 16 39.1634 16 48" stroke="#81D7B4" stroke-width="2" stroke-linecap="round"/>
  <path d="M32 28C34.2091 28 36 26.2091 36 24C36 21.7909 34.2091 20 32 20C29.7909 20 28 21.7909 28 24C28 26.2091 29.7909 28 32 28Z" fill="white"/>
</svg> 