<svg width="600" height="400" viewBox="0 0 600 400" fill="none" xmlns="http://www.w3.org/2000/svg">
  <!-- Background -->
  <rect width="600" height="400" rx="12" fill="#F8FAFC" />
  
  <!-- Header -->
  <rect width="600" height="60" rx="8" fill="#3B82F6" opacity="0.1" />
  <circle cx="30" cy="30" r="16" fill="#3B82F6" />
  <rect x="60" y="22" width="80" height="16" rx="4" fill="#3B82F6" />
  <rect x="400" y="22" width="60" height="16" rx="4" fill="#3B82F6" opacity="0.6" />
  <rect x="480" y="22" width="60" height="16" rx="4" fill="#3B82F6" opacity="0.6" />
  <rect x="560" y="22" width="16" height="16" rx="4" fill="#3B82F6" opacity="0.6" />
  
  <!-- Sidebar -->
  <rect width="200" height="340" y="60" rx="8" fill="#3B82F6" opacity="0.05" />
  <rect x="20" y="80" width="160" height="40" rx="8" fill="#3B82F6" opacity="0.2" />
  <rect x="30" y="95" width="100" height="10" rx="2" fill="#3B82F6" />
  
  <rect x="20" y="140" width="160" height="40" rx="8" fill="#FFFFFF" />
  <rect x="30" y="155" width="100" height="10" rx="2" fill="#64748B" />
  
  <rect x="20" y="200" width="160" height="40" rx="8" fill="#FFFFFF" />
  <rect x="30" y="215" width="100" height="10" rx="2" fill="#64748B" />
  
  <rect x="20" y="260" width="160" height="40" rx="8" fill="#FFFFFF" />
  <rect x="30" y="275" width="100" height="10" rx="2" fill="#64748B" />
  
  <rect x="20" y="320" width="160" height="40" rx="8" fill="#FFFFFF" />
  <rect x="30" y="335" width="100" height="10" rx="2" fill="#64748B" />
  
  <!-- Main Content -->
  <rect x="220" y="80" width="360" height="100" rx="12" fill="#8B5CF6" opacity="0.1" />
  <rect x="240" y="100" width="120" height="20" rx="4" fill="#8B5CF6" />
  <rect x="240" y="130" width="200" height="12" rx="2" fill="#8B5CF6" opacity="0.6" />
  <rect x="240" y="150" width="160" height="12" rx="2" fill="#8B5CF6" opacity="0.4" />
  
  <!-- Stats Cards -->
  <rect x="220" y="200" width="170" height="120" rx="12" fill="#3B82F6" opacity="0.1" />
  <rect x="240" y="220" width="80" height="16" rx="4" fill="#3B82F6" />
  <rect x="240" y="250" width="100" height="24" rx="4" fill="#3B82F6" opacity="0.8" />
  <rect x="240" y="285" width="130" height="8" rx="2" fill="#3B82F6" opacity="0.4" />
  
  <rect x="410" y="200" width="170" height="120" rx="12" fill="#10B981" opacity="0.1" />
  <rect x="430" y="220" width="80" height="16" rx="4" fill="#10B981" />
  <rect x="430" y="250" width="100" height="24" rx="4" fill="#10B981" opacity="0.8" />
  <rect x="430" y="285" width="130" height="8" rx="2" fill="#10B981" opacity="0.4" />
  
  <!-- Chart -->
  <rect x="220" y="340" width="360" height="40" rx="8" fill="#F1F5F9" />
  
  <!-- Chart Bars -->
  <rect x="240" y="350" width="10" height="20" rx="2" fill="#3B82F6" opacity="0.4" />
  <rect x="260" y="345" width="10" height="25" rx="2" fill="#3B82F6" opacity="0.5" />
  <rect x="280" y="340" width="10" height="30" rx="2" fill="#3B82F6" opacity="0.6" />
  <rect x="300" y="335" width="10" height="35" rx="2" fill="#3B82F6" opacity="0.7" />
  <rect x="320" y="350" width="10" height="20" rx="2" fill="#3B82F6" opacity="0.4" />
  <rect x="340" y="345" width="10" height="25" rx="2" fill="#3B82F6" opacity="0.5" />
  <rect x="360" y="355" width="10" height="15" rx="2" fill="#3B82F6" opacity="0.3" />
  <rect x="380" y="340" width="10" height="30" rx="2" fill="#3B82F6" opacity="0.6" />
  <rect x="400" y="330" width="10" height="40" rx="2" fill="#3B82F6" opacity="0.8" />
  <rect x="420" y="345" width="10" height="25" rx="2" fill="#3B82F6" opacity="0.5" />
  <rect x="440" y="350" width="10" height="20" rx="2" fill="#3B82F6" opacity="0.4" />
  <rect x="460" y="335" width="10" height="35" rx="2" fill="#3B82F6" opacity="0.7" />
  <rect x="480" y="355" width="10" height="15" rx="2" fill="#3B82F6" opacity="0.3" />
  <rect x="500" y="345" width="10" height="25" rx="2" fill="#3B82F6" opacity="0.5" />
  <rect x="520" y="340" width="10" height="30" rx="2" fill="#3B82F6" opacity="0.6" />
  <rect x="540" y="350" width="10" height="20" rx="2" fill="#3B82F6" opacity="0.4" />
</svg>