<svg width="300" height="200" viewBox="0 0 300 200" fill="none" xmlns="http://www.w3.org/2000/svg">
  <!-- Background with grain effect -->
  <rect width="300" height="200" rx="12" fill="#163239" opacity="0.05"/>
  <rect width="300" height="200" rx="12" fill="url(#grain)" opacity="0.1"/>
  
  <!-- Card content -->
  <rect x="20" y="20" width="260" height="160" rx="8" fill="#FFFFFF" fill-opacity="0.1"/>
  <rect x="20" y="20" width="260" height="160" rx="8" stroke="#81D7B4" stroke-opacity="0.2" stroke-width="1"/>
  
  <!-- Transaction details -->
  <rect x="30" y="30" width="120" height="24" rx="4" fill="#81D7B4" fill-opacity="0.2"/>
  <text x="40" y="46" font-family="Arial" font-size="12" font-weight="bold" fill="#81D7B4">Deposit Funds</text>
  
  <!-- Amount field -->
  <rect x="30" y="64" width="240" height="40" rx="4" fill="#FFFFFF" fill-opacity="0.05" stroke="#81D7B4" stroke-opacity="0.2" stroke-width="1"/>
  <text x="40" y="84" font-family="Arial" font-size="14" font-weight="bold" fill="#FFFFFF">500 USDT</text>
  <text x="40" y="98" font-family="Arial" font-size="10" fill="#FFFFFF" fill-opacity="0.6">to Vacation Fund</text>
  
  <!-- Status -->
  <circle cx="45" cy="130" r="10" fill="#81D7B4"/>
  <path d="M40 130L43 133L50 126" stroke="white" stroke-width="2" stroke-linecap="round" stroke-linejoin="round"/>
  <text x="60" y="134" font-family="Arial" font-size="12" font-weight="bold" fill="#FFFFFF">Transaction Successful</text>
  
  <!-- Decorative elements -->
  <circle cx="250" cy="40" r="10" fill="#81D7B4" fill-opacity="0.3"/>
  <circle cx="230" cy="40" r="6" fill="#81D7B4" fill-opacity="0.2"/>
  
  <!-- Coin icon -->
  <circle cx="230" cy="130" r="20" fill="url(#coinGradient)" opacity="0.8"/>
  <text x="222" y="135" font-family="Arial" font-size="12" font-weight="bold" fill="#FFFFFF">$</text>
  
  <!-- Definitions -->
  <defs>
    <linearGradient id="coinGradient" x1="210" y1="110" x2="250" y2="150" gradientUnits="userSpaceOnUse">
      <stop offset="0" stop-color="#163239"/>
      <stop offset="1" stop-color="#81D7B4"/>
    </linearGradient>
    
    <filter id="noise" x="0" y="0" width="100%" height="100%">
      <feTurbulence type="fractalNoise" baseFrequency="0.8" numOctaves="3" stitchTiles="stitch" result="noise"/>
      <feColorMatrix type="matrix" values="1 0 0 0 0 0 1 0 0 0 0 0 1 0 0 0 0 0 0.05 0" in="noise" result="coloredNoise"/>
    </filter>
    
    <pattern id="grain" width="100%" height="100%" patternUnits="userSpaceOnUse">
      <rect width="300" height="200" fill="#FFFFFF"/>
      <rect width="300" height="200" filter="url(#noise)"/>
    </pattern>
  </defs>
</svg>